<svg width="32" height="32" viewBox="0 0 32 32" fill="none" xmlns="http://www.w3.org/2000/svg">
  <!-- Background Circle -->
  <circle cx="16" cy="16" r="15" fill="url(#gradient1)"/>

  <!-- Simplified "C" -->
  <path d="M 22 11 Q 23.5 11 23.5 12.5 Q 23.5 14 22 15 L 20.5 14.2 Q 22 13.5 22 12.5 Q 22 11.8 20.5 11.8 L 11.5 11.8 Q 10 11.8 10 13.2 L 10 18.8 Q 10 20.2 11.5 20.2 L 20.5 20.2 Q 22 20.2 22 19.5 Q 22 18 20.5 17.3 L 22 16.5 Q 23.5 18 23.5 19.5 Q 23.5 21 22 21 L 11.5 21 Q 8.5 21 8.5 18.8 L 8.5 13.2 Q 8.5 11 11.5 11 Z" fill="white"/>

  <!-- Tiny Airplane -->
  <g transform="translate(18, 14) rotate(-30) scale(0.5)">
    <path d="M 0 0 L 5 1.2 L 1.5 2.5 L 2.5 4 L 0.8 4 L 0 2.5 L -0.8 4 L -2.5 4 L -1.5 2.5 L -5 1.2 Z" fill="#FFD700"/>
  </g>

  <defs>
    <linearGradient id="gradient1" x1="0%" y1="0%" x2="100%" y2="100%">
      <stop offset="0%" style="stop-color:#667eea;stop-opacity:1" />
      <stop offset="100%" style="stop-color:#764ba2;stop-opacity:1" />
    </linearGradient>
  </defs>
</svg>
