<svg width="40" height="40" viewBox="0 0 40 40" fill="none" xmlns="http://www.w3.org/2000/svg">
  <!-- Background Circle -->
  <circle cx="20" cy="20" r="19" fill="url(#gradient1)"/>

  <!-- Simplified "C" -->
  <path d="M 27 13 Q 29 13 29 15 Q 29 17 27 19 L 25 18 Q 27 17 27 15 Q 27 14 25 14 L 15 14 Q 13 14 13 16 L 13 24 Q 13 26 15 26 L 25 26 Q 27 26 27 25 Q 27 23 25 22 L 27 21 Q 29 23 29 25 Q 29 27 27 27 L 15 27 Q 11 27 11 24 L 11 16 Q 11 13 15 13 Z" fill="white"/>

  <!-- Small Airplane -->
  <g transform="translate(22, 18) rotate(-30) scale(0.6)">
    <path d="M 0 0 L 6 1.5 L 2 3 L 3 5 L 1 5 L 0 3 L -1 5 L -3 5 L -2 3 L -6 1.5 Z" fill="#FFD700"/>
  </g>

  <defs>
    <linearGradient id="gradient1" x1="0%" y1="0%" x2="100%" y2="100%">
      <stop offset="0%" style="stop-color:#667eea;stop-opacity:1" />
      <stop offset="100%" style="stop-color:#764ba2;stop-opacity:1" />
    </linearGradient>
  </defs>
</svg>
