<svg width="120" height="120" viewBox="0 0 120 120" fill="none" xmlns="http://www.w3.org/2000/svg">
  <!-- Background Circle -->
  <circle cx="60" cy="60" r="58" fill="url(#gradient1)" stroke="url(#gradient2)" stroke-width="2"/>

  <!-- Main "C" Shape with Travel Path -->
  <path d="M 80 35 Q 90 35 90 45 Q 90 55 80 60 L 75 58 Q 82 55 82 45 Q 82 40 75 40 L 45 40 Q 35 40 35 50 L 35 70 Q 35 80 45 80 L 75 80 Q 82 80 82 75 Q 82 65 75 62 L 80 60 Q 90 65 90 75 Q 90 85 80 85 L 45 85 Q 28 85 28 70 L 28 50 Q 28 35 45 35 Z" fill="white"/>

  <!-- Airplane Icon -->
  <g transform="translate(65, 50) rotate(-30)">
    <path d="M 0 0 L 8 2 L 3 4 L 4 7 L 2 7 L 0 4 L -2 7 L -4 7 L -3 4 L -8 2 Z" fill="#FFD700"/>
  </g>

  <!-- Location Pin -->
  <g transform="translate(45, 55)">
    <path d="M 0 -6 Q -4 -6 -4 -2 Q -4 2 0 6 Q 4 2 4 -2 Q 4 -6 0 -6 Z" fill="#FFD700"/>
    <circle cx="0" cy="-2" r="1.5" fill="white"/>
  </g>

  <!-- Decorative Stars -->
  <circle cx="25" cy="30" r="2" fill="white" opacity="0.8"/>
  <circle cx="90" cy="90" r="2" fill="white" opacity="0.8"/>
  <circle cx="30" cy="85" r="1.5" fill="white" opacity="0.6"/>

  <!-- Gradients -->
  <defs>
    <linearGradient id="gradient1" x1="0%" y1="0%" x2="100%" y2="100%">
      <stop offset="0%" style="stop-color:#667eea;stop-opacity:1" />
      <stop offset="100%" style="stop-color:#764ba2;stop-opacity:1" />
    </linearGradient>
    <linearGradient id="gradient2" x1="0%" y1="0%" x2="100%" y2="100%">
      <stop offset="0%" style="stop-color:#f093fb;stop-opacity:1" />
      <stop offset="100%" style="stop-color:#f5576c;stop-opacity:1" />
    </linearGradient>
  </defs>
</svg>
